<svg class="svg-icon" style="width: 1em; height: 1em;vertical-align: middle;fill: currentColor;overflow: hidden;" viewBox="0 0 1024 1024" version="1.1" xmlns="http://www.w3.org/2000/svg"><path d="M606.165333 115.498667L209.664 512l396.501333 396.501333a42.666667 42.666667 0 0 1-60.330666 60.330667l-426.666667-426.666667a42.666667 42.666667 0 0 1 0-60.330666l426.666667-426.666667a42.666667 42.666667 0 0 1 60.330666 60.330667z m298.666667 0L508.330667 512l396.501333 396.501333a42.666667 42.666667 0 0 1-60.330667 60.330667l-426.666666-426.666667a42.666667 42.666667 0 0 1 0-60.330666l426.666666-426.666667a42.666667 42.666667 0 0 1 60.330667 60.330667z"  /></svg>